<svg width="48" height="50" viewBox="0 0 48 50" fill="none" xmlns="http://www.w3.org/2000/svg">
<circle cx="24" cy="26" r="24" fill="white"/>
<path d="M18.3323 22H29.6713C29.9596 22 30.2446 22.0623 30.5066 22.1827C30.7687 22.3031 31.0015 22.4788 31.1893 22.6976C31.3771 22.9164 31.5153 23.1733 31.5946 23.4506C31.6738 23.7279 31.6921 24.019 31.6483 24.304L30.3933 32.456C30.2843 33.1644 29.9253 33.8105 29.3813 34.2771C28.8372 34.7438 28.144 35.0002 27.4273 35H20.5753C19.8587 35 19.1658 34.7434 18.6219 34.2768C18.078 33.8102 17.7192 33.1643 17.6103 32.456L16.3553 24.304C16.3114 24.019 16.3298 23.7279 16.409 23.4506C16.4882 23.1733 16.6264 22.9164 16.8142 22.6976C17.002 22.4788 17.2349 22.3031 17.4969 22.1827C17.7589 22.0623 18.0439 22 18.3323 22Z" stroke="#1A1A1A" stroke-width="1.5" stroke-linecap="round" stroke-linejoin="round"/>
<path d="M21 25V20C21 19.2044 21.3161 18.4413 21.8787 17.8787C22.4413 17.3161 23.2044 17 24 17C24.7956 17 25.5587 17.3161 26.1213 17.8787C26.6839 18.4413 27 19.2044 27 20V25" stroke="#1A1A1A" stroke-width="1.5" stroke-linecap="round" stroke-linejoin="round"/>
<circle cx="34" cy="7" r="6.5" fill="#E2523E" stroke="white"/>
</svg>
